<?xml version="1.0" encoding="UTF-8" standalone="no"?>
<!-- Generator: Adobe Illustrator 13.0.2, SVG Export Plug-In . SVG Version: 6.00 Build 14948)  -->
<svg
   xmlns:dc="http://purl.org/dc/elements/1.1/"
   xmlns:cc="http://web.resource.org/cc/"
   xmlns:rdf="http://www.w3.org/1999/02/22-rdf-syntax-ns#"
   xmlns:svg="http://www.w3.org/2000/svg"
   xmlns="http://www.w3.org/2000/svg"
   xmlns:xlink="http://www.w3.org/1999/xlink"
   xmlns:sodipodi="http://sodipodi.sourceforge.net/DTD/sodipodi-0.dtd"
   xmlns:inkscape="http://www.inkscape.org/namespaces/inkscape"
   version="1.0"
   id="Livello_1"
   x="0px"
   y="0px"
   width="128"
   height="128"
   viewBox="0 0 188.431 125.275"
   enable-background="new 0 0 188.431 125.275"
   xml:space="preserve"
   sodipodi:version="0.32"
   inkscape:version="0.45.1"
   sodipodi:docname="kopete.svg.svgz"
   sodipodi:docbase="/home/david/sandbox"
   inkscape:output_extension="org.inkscape.output.svgz.inkscape"><metadata
   id="metadata66"><rdf:RDF><cc:Work
       rdf:about=""><dc:format>image/svg+xml</dc:format><dc:type
         rdf:resource="http://purl.org/dc/dcmitype/StillImage" /></cc:Work></rdf:RDF></metadata><defs
   id="defs64"><linearGradient
     id="linearGradient13060"><stop
       style="stop-color:#204a87;stop-opacity:1;"
       offset="0"
       id="stop13062" /><stop
       style="stop-color:#16325d;stop-opacity:1;"
       offset="1"
       id="stop13064" /></linearGradient><linearGradient
     inkscape:collect="always"
     xlink:href="#SVGID_5_"
     id="linearGradient5131"
     gradientUnits="userSpaceOnUse"
     gradientTransform="matrix(0.9875,-0.1574,0.1574,0.9875,-9.4374,9.6975)"
     x1="81.905296"
     y1="67.636703"
     x2="184.3334"
     y2="67.636703" /><mask
     maskUnits="userSpaceOnUse"
     id="mask5127"><path
       d="M 83.182,24.126 C 75.649,34.464 72.786,46.763 74.524,58.288 C 75.711,66.156 79.044,73.663 84.502,79.937 C 91.399,87.866 101.327,93.665 112.455,96.269 C 115.251,96.923 117.368,98.724 118.419,101.341 C 118.708,102.059 118.906,102.826 119.027,103.629 C 119.505,106.797 118.774,110.518 117.625,114.008 C 120.186,112.341 122.667,110.596 125.015,108.738 C 129.435,105.236 132.793,101.874 135.283,98.462 C 135.903,97.61 136.819,97.032 137.84,96.85 C 144.094,95.735 150.085,93.742 155.647,90.927 C 172.498,82.401 189.032,62.627 185.522,39.358 C 181.598,13.35 161.718,4.736 150.217,1.916 C 125.219,-4.215 97.027,5.126 83.182,24.126 z "
       id="path5129"
       style="fill:url(#linearGradient5131)" /></mask><filter
     inkscape:collect="always"
     id="filter6102"><feGaussianBlur
       inkscape:collect="always"
       stdDeviation="1.513246"
       id="feGaussianBlur6104" /></filter><filter
     inkscape:collect="always"
     x="-0.1402677"
     width="1.2805355"
     y="-0.30418789"
     height="1.6083758"
     id="filter8048"><feGaussianBlur
       inkscape:collect="always"
       stdDeviation="3.7002965"
       id="feGaussianBlur8050" /></filter><filter
     inkscape:collect="always"
     x="-0.075144179"
     width="1.1502884"
     y="-0.13288008"
     height="1.2657602"
     id="filter10144"><feGaussianBlur
       inkscape:collect="always"
       stdDeviation="1.0554"
       id="feGaussianBlur10146" /></filter><filter
     inkscape:collect="always"
     id="filter14039"><feGaussianBlur
       inkscape:collect="always"
       stdDeviation="1.9067374"
       id="feGaussianBlur14041" /></filter><filter
     inkscape:collect="always"
     id="filter10101"><feGaussianBlur
       inkscape:collect="always"
       stdDeviation="3.4968943"
       id="feGaussianBlur10103" /></filter><radialGradient
     inkscape:collect="always"
     xlink:href="#SVGID_1_"
     id="radialGradient10147"
     gradientUnits="userSpaceOnUse"
     gradientTransform="matrix(1.3477555,-0.2293576,0.2074468,1.3901348,-6.8689117,-10.865374)"
     cx="66.265602"
     cy="57.4487"
     r="62.1035" /><linearGradient
     inkscape:collect="always"
     xlink:href="#SVGID_2_"
     id="linearGradient10149"
     gradientUnits="userSpaceOnUse"
     gradientTransform="matrix(0.9875,-0.1574,0.1574,0.9875,10.5626,9.6975)"
     x1="63.1133"
     y1="84.261703"
     x2="63.1133"
     y2="56.7295" /><linearGradient
     inkscape:collect="always"
     xlink:href="#linearGradient13060"
     id="linearGradient10151"
     gradientUnits="userSpaceOnUse"
     x1="108.75069"
     y1="50.613628"
     x2="80.037865"
     y2="-36.633152" /><linearGradient
     inkscape:collect="always"
     xlink:href="#SVGID_6_"
     id="linearGradient10153"
     gradientUnits="userSpaceOnUse"
     gradientTransform="matrix(-1.3853663,0.3999453,-0.3993736,-1.4009155,177.62674,32.129603)"
     x1="58.5298"
     y1="54.625"
     x2="58.5298"
     y2="7.1538" /></defs><sodipodi:namedview
   inkscape:window-height="699"
   inkscape:window-width="1024"
   inkscape:pageshadow="2"
   inkscape:pageopacity="0.0"
   guidetolerance="10.0"
   gridtolerance="10.0"
   objecttolerance="10.0"
   borderopacity="1.0"
   bordercolor="#666666"
   pagecolor="#ffffff"
   id="base"
   height="128px"
   width="128px"
   showguides="true"
   inkscape:guide-bbox="true"
   inkscape:zoom="1"
   inkscape:cx="29.49703"
   inkscape:cy="22.732673"
   inkscape:window-x="0"
   inkscape:window-y="0"
   inkscape:current-layer="g10130" />

<radialGradient
   id="SVGID_1_"
   cx="66.265602"
   cy="57.4487"
   r="62.1035"
   gradientTransform="matrix(1.3537258,-0.2279136,0.2083657,1.3813824,7.1703388,-35.53963)"
   gradientUnits="userSpaceOnUse">
	<stop
   offset="0.3669"
   style="stop-color:#bfebff;stop-opacity:1;"
   id="stop6" />
	
	
	<stop
   offset="0.73034632"
   style="stop-color:#5ac6ff;stop-opacity:1;"
   id="stop12" />
	
	
	
	<stop
   offset="1"
   style="stop-color:#0072cf;stop-opacity:1;"
   id="stop20" />
</radialGradient>

<linearGradient
   id="SVGID_2_"
   gradientUnits="userSpaceOnUse"
   x1="63.1133"
   y1="84.261703"
   x2="63.1133"
   y2="56.7295"
   gradientTransform="matrix(0.9875,-0.1574,0.1574,0.9875,10.5626,9.6975)">
	<stop
   offset="0"
   style="stop-color:#FFFFFF"
   id="stop25" />
	<stop
   offset="1"
   style="stop-color:#B0EAFF"
   id="stop27" />
</linearGradient>



<linearGradient
   id="SVGID_5_"
   gradientUnits="userSpaceOnUse"
   x1="81.905296"
   y1="67.636703"
   x2="184.3334"
   y2="67.636703"
   gradientTransform="matrix(0.9875,-0.1574,0.1574,0.9875,-29.4374,9.6975)">
	<stop
   offset="0"
   style="stop-color:#000000"
   id="stop46" />
	<stop
   offset="0.1243"
   style="stop-color:#FFFFFF"
   id="stop48" />
	<stop
   offset="0.8876"
   style="stop-color:#FFFFFF"
   id="stop50" />
	<stop
   offset="1"
   style="stop-color:#000000"
   id="stop52" />
</linearGradient>

<linearGradient
   id="SVGID_6_"
   gradientUnits="userSpaceOnUse"
   x1="58.5298"
   y1="54.625"
   x2="58.5298"
   y2="7.1538"
   gradientTransform="matrix(-1.42989,0.2279136,-0.2279136,-1.42989,199.73027,16.811143)">
	<stop
   offset="0"
   style="stop-color:#FFFFFF"
   id="stop57" />
	<stop
   offset="0.81660002"
   style="stop-color:#ffffff;stop-opacity:0;"
   id="stop59" />
</linearGradient>

<g
   id="g4183"
   transform="matrix(1.0552094,0,0,1.0329623,-3.2859872,1.040883)"><g
     id="g10105"><g
       id="g10130"
       transform="translate(-2.7901897,0)"><path
         transform="matrix(0.9677419,0,0,0.967742,5.7708427,4.773857)"
         d="M 178.23779,31.142703 C 167.93754,-38.036172 64.009419,-47.27168 21.943417,3.4755245 C 0.23142102,29.66951 0.10888302,66.594054 24.355221,91.349818 C 36.666519,103.9164 53.325693,111.7778 70.551419,114.88448 C 82.457629,117.03671 71.850299,139.11712 66.284269,147.98979 C 76.133309,142.84455 85.479229,136.83228 93.924143,130.0521 C 99.77994,125.34837 105.30704,120.16961 109.68951,114.22001 C 118.86965,112.28635 127.72831,109.12868 135.89933,104.80527 C 162.92796,90.511948 182.81921,61.906356 178.23779,31.142703 z "
         id="path9130"
         style="fill:#000000;fill-opacity:1;filter:url(#filter10101)" /><path
         style="fill:url(#radialGradient10147)"
         id="path22"
         d="M 178.23779,28.29242 C 167.93754,-40.886455 64.009419,-50.121963 21.943417,0.625242 C 0.231421,26.819227 0.108883,63.743771 24.355221,88.499535 C 36.666519,101.06612 53.325693,108.92752 70.551419,112.0342 C 82.457629,114.18643 71.850299,136.26684 66.284269,145.13951 C 76.133309,139.99427 85.479229,133.982 93.924143,127.20182 C 99.779943,122.49809 105.30704,117.31933 109.68951,111.36973 C 118.86965,109.43607 127.72831,106.2784 135.89933,101.95499 C 162.92796,87.661665 182.81921,59.056073 178.23779,28.29242 z " /><path
         transform="matrix(-1.511051,0,0,-1.6209565,221.35217,169.31263)"
         style="fill:url(#linearGradient10149);filter:url(#filter8048)"
         id="path29"
         d="M 52.408,74.725 C 53.686,82.455 69.503,86.013 87.159,82.791 C 104.207,79.68 116.693,71.355 115.568,64.088 C 114.439,56.804 100.01,52.97 82.813,55.625 C 65,58.375 51.126,66.975 52.408,74.725 z " /><g
         transform="matrix(1.4479899,0,0,1.4479899,5.872577,-30.497191)"
         id="g31">
	<defs
   id="defs33"><path
     d="M 119.543,41.087 C 112.398,-6.388 40.306,-12.726 11.126,22.1 C -3.935,40.076 -4.02,65.416 12.799,82.405 C 21.339,91.029 32.895,96.424 44.844,98.556 C 53.103,100.033 45.745,115.186 41.884,121.275 C 48.716,117.744 55.199,113.618 61.057,108.965 C 65.119,105.737 68.953,102.183 71.993,98.1 C 78.361,96.773 84.506,94.606 90.174,91.639 C 108.923,81.83 122.721,62.199 119.543,41.087 z "
     id="SVGID_3_" /></defs>
	<clipPath
   id="SVGID_4_">
		<use
   height="125.275"
   width="188.431"
   y="0"
   x="0"
   style="overflow:visible"
   id="use37"
   overflow="visible"
   xlink:href="#SVGID_3_" />
	</clipPath>
</g><g
         mask="url(#mask5127)"
         transform="matrix(1.4416039,0,0,1.4571643,-92.124937,-31.578091)"
         id="g39"
         style="opacity:0.6;stroke:#c9ffff;stroke-width:8.13330078;stroke-miterlimit:4;stroke-dasharray:none;stroke-opacity:1">
	<path
   style="fill:none;stroke:#c9ffff;stroke-width:8.13330078;stroke-linecap:round;stroke-miterlimit:4;stroke-dasharray:none;stroke-opacity:1;filter:url(#filter10144)"
   id="path41"
   d="M 86.103,81.665325 C 93.594,89.276325 104.189,94.607325 115.811,96.727325" />
	<path
   style="fill:none;stroke:#c9ffff;stroke-width:8.13330078;stroke-linecap:round;stroke-miterlimit:4;stroke-dasharray:none;stroke-opacity:1;filter:url(#filter6102)"
   id="path43"
   d="M 117.818,116.323 C 120.445,114.589 126.245,107.901 128.611,106.034 C 133.041,102.536 136.381,99.241 138.84,95.953 C 139.45,95.136 140.353,94.564 141.355,94.359 C 147.451,93.111 153.223,91.08 158.518,88.331 C 174.219,80.185 189.139,62.321 186.011,41.61"
   transform="matrix(0.9484332,0,0,1.0026871,5.9740282,-0.2121936)" />
</g><g
         id="g14043"
         transform="matrix(0.8677502,0,0,0.8677502,-0.4555421,27.694823)"><path
           style="font-size:409.62963867px;font-style:normal;font-weight:normal;line-height:125%;opacity:0.5;fill:#15315a;fill-opacity:1;stroke:none;stroke-width:1px;stroke-linecap:butt;stroke-linejoin:miter;stroke-opacity:1;filter:url(#filter14039);font-family:Bitstream Vera Sans"
           d="M 68.71527,7.3415546 L 66.801902,-2.8937305 L 77.037184,-4.8070975 L 78.950553,5.4281883 L 68.71527,7.3415546 M 76.714077,50.130037 L 74.800708,39.894753 L 85.035991,37.981386 L 86.949359,48.216671 C 88.384816,55.527027 86.507722,60.872981 81.318055,64.254549 L 78.102968,60.87675 C 79.905025,59.644203 81.076975,58.081623 81.618855,56.189002 C 82.200207,54.323436 82.262839,51.986444 81.806744,49.178021 L 76.714077,50.130037 M 95.124959,23.952214 L 93.435598,14.915207 L 121.04589,9.7537826 L 122.73525,18.790791 L 95.124959,23.952214 M 146.64205,59.328884 C 150.72136,51.297619 153.59961,42.922501 155.27679,34.203501 C 156.9872,25.478293 157.02418,16.73865 155.38774,7.9845456 C 154.45437,2.9917613 153.11211,-1.7006985 151.36096,-6.0928491 C 149.64306,-10.491128 147.56511,-14.512105 145.12712,-18.155795 C 142.68908,-21.799365 140.16662,-25.065497 137.55972,-27.9542 C 134.95279,-30.842763 132.00057,-33.735748 128.70306,-36.633151 L 122.26233,-35.429131 C 125.33277,-31.903648 127.7213,-29.077539 129.42793,-26.950788 C 131.13457,-24.823903 132.98866,-22.276818 134.99021,-19.309526 C 137.01883,-16.381625 138.62111,-13.615224 139.79705,-11.010314 C 141.00628,-8.4115265 142.16325,-5.3551879 143.26798,-1.841291 C 144.40598,1.6664665 145.3701,5.5339491 146.16036,9.7611706 C 149.14705,25.738215 147.1607,42.662109 140.20131,60.532905 L 146.64205,59.328884"
           id="path13068" /><path
           id="text11117"
           d="M 65.771036,7.3415544 L 63.857668,-2.8937305 L 74.09295,-4.8070975 L 76.006319,5.4281883 L 65.771036,7.3415544 M 73.769843,50.130037 L 71.856474,39.894753 L 82.091757,37.981386 L 84.005125,48.216671 C 85.440582,55.527027 83.563488,60.872981 78.373821,64.254549 L 75.158734,60.87675 C 76.960791,59.644203 78.132741,58.081623 78.674621,56.189002 C 79.255973,54.323436 79.318605,51.986444 78.86251,49.178021 L 73.769843,50.130037 M 92.180725,23.952214 L 90.491364,14.915207 L 118.10166,9.7537824 L 119.79102,18.790791 L 92.180725,23.952214 M 143.69782,59.328884 C 147.77713,51.297619 150.65538,42.922501 152.33256,34.203501 C 154.04297,25.478293 154.07995,16.73865 152.44351,7.9845458 C 151.51014,2.9917613 150.16788,-1.7006985 148.41673,-6.0928491 C 146.69883,-10.491128 144.62088,-14.512105 142.18289,-18.155795 C 139.74485,-21.799365 137.22239,-25.065497 134.61549,-27.9542 C 132.00856,-30.842763 129.05634,-33.735748 125.75883,-36.633151 L 119.3181,-35.429131 C 122.38854,-31.903648 124.77707,-29.077539 126.4837,-26.950788 C 128.19034,-24.823903 130.04443,-22.276818 132.04598,-19.309526 C 134.0746,-16.381625 135.67688,-13.615224 136.85282,-11.010314 C 138.06205,-8.4115265 139.21902,-5.3551879 140.32375,-1.841291 C 141.46175,1.6664665 142.42587,5.5339491 143.21613,9.7611708 C 146.20282,25.738215 144.21647,42.662109 137.25708,60.532905 L 143.69782,59.328884"
           style="font-size:409.62963867px;font-style:normal;font-weight:normal;line-height:125%;fill:url(#linearGradient10151);fill-opacity:1;stroke:none;stroke-width:1px;stroke-linecap:butt;stroke-linejoin:miter;stroke-opacity:1;font-family:Bitstream Vera Sans" /></g><path
         style="fill:url(#linearGradient10153)"
         id="path61"
         d="M 141.29571,-2.150464 C 136.37923,-19.821235 108.16429,-28.637495 77.073951,-21.501815 C 44.552673,-14.036086 21.606736,7.824078 27.189396,26.932967 C 32.745735,45.956986 64.138927,53.778052 95.976873,44.852812 C 126.42868,36.315278 146.19317,15.44776 141.29571,-2.150464 z " /></g></g></g></svg>