<?xml version="1.0" encoding="UTF-8" standalone="no"?>
<svg
   xmlns:dc="http://purl.org/dc/elements/1.1/"
   xmlns:cc="http://creativecommons.org/ns#"
   xmlns:rdf="http://www.w3.org/1999/02/22-rdf-syntax-ns#"
   xmlns:svg="http://www.w3.org/2000/svg"
   xmlns="http://www.w3.org/2000/svg"
   id="svg2"
   xml:space="preserve"
   style="enable-background:new 0 0 512 512;"
   viewBox="0 0 512 512"
   height="512px"
   width="512px"
   y="0px"
   x="0px"
   version="1.1"><metadata
     id="metadata9"><rdf:RDF><cc:Work
         rdf:about=""><dc:format>image/svg+xml</dc:format><dc:type
           rdf:resource="http://purl.org/dc/dcmitype/StillImage" /><dc:title></dc:title></cc:Work></rdf:RDF></metadata><defs
     id="defs7" /><g
     style="fill:#ffaaee"
     id="g3347"><path
       d="M 245.405,323.658 180.895,462 164.298,416.367 118.665,432.98 179.034,303.541 c 11.635,3.688 19.514,2.783 31.736,2.783 12.791,8.784 18.407,14.485 34.635,17.334 z"
       id="path3345"
       style="fill:#ffaaee" /><path
       d="m 301.23,306.324 c -12.674,8.684 -18.005,14.266 -34.232,17.233 L 331.541,462 l 16.598,-45.633 45.197,16.613 -60,-129.607 c -11.77,3.839 -19.666,2.951 -32.106,2.951 z"
       id="path3343"
       style="fill:#ffaaee" /><path
       d="m 374.895,192.098 c 0.872,2.515 1.274,5.088 1.274,7.636 0,7.712 -3.806,15.164 -10.562,19.85 -21.56,14.938 -18.709,11.182 -26.824,35.482 -3.402,10.144 -13.21,16.999 -24.274,16.999 l -0.067,0 c -26.588,-0.092 -21.961,-1.517 -43.403,13.538 -4.477,3.151 -9.757,4.728 -15.038,4.728 -5.281,0 -10.562,-1.576 -15.038,-4.728 -21.442,-15.063 -16.832,-13.63 -43.403,-13.538 l -0.067,0 c -11.064,0 -20.872,-6.855 -24.258,-16.999 -8.114,-24.334 -5.331,-20.562 -26.824,-35.482 -6.773,-4.694 -10.578,-12.146 -10.578,-19.857 0,-2.549 0.419,-5.113 1.274,-7.628 8.298,-24.217 8.315,-19.548 0,-43.865 -0.855,-2.515 -1.274,-5.088 -1.274,-7.628 0,-7.72 3.805,-15.163 10.578,-19.857 21.476,-14.904 18.693,-11.132 26.824,-35.482 3.386,-10.143 13.194,-16.999 24.258,-16.999 l 0.067,0 c 26.521,0.092 21.811,1.626 43.403,-13.555 C 245.438,51.567 250.719,50 256,50 c 5.281,0 10.562,1.567 15.038,4.711 21.442,15.071 16.831,13.646 43.403,13.555 l 0.067,0 c 11.064,0 20.872,6.856 24.274,16.999 8.115,24.3 5.265,20.545 26.824,35.482 6.756,4.686 10.562,12.129 10.562,19.841 0,2.548 -0.402,5.13 -1.274,7.645 -8.281,24.207 -8.314,19.547 10e-4,43.865 z"
       id="path3339"
       style="fill:#ffaaee" /></g></svg>